<?xml version="1.0" standalone="no"?>
<!DOCTYPE svg PUBLIC "-//W3C//DTD SVG 20010904//EN"
 "http://www.w3.org/TR/2001/REC-SVG-20010904/DTD/svg10.dtd">
<svg version="1.0" xmlns="http://www.w3.org/2000/svg"
 width="1024.000000pt" height="1024.000000pt" viewBox="0 0 1024.000000 1024.000000"
 preserveAspectRatio="xMidYMid meet">
<metadata>
Created by potrace 1.14, written by Peter Selinger 2001-2017
</metadata>
<g transform="translate(0.000000,1024.000000) scale(0.100000,-0.100000)"
fill="#000000" stroke="none">
<path d="M4790 8924 c-576 -52 -1062 -205 -1549 -488 -304 -177 -627 -453
-844 -721 -388 -481 -659 -1155 -659 -1640 0 -142 17 -215 72 -326 77 -152
258 -318 424 -388 5 -2 5 44 2 105 -15 249 32 435 143 556 47 52 48 56 61 148
28 212 85 390 195 615 124 254 245 422 450 628 145 146 238 221 426 346 411
274 839 417 1352 453 693 47 1373 -170 1927 -616 474 -382 788 -919 856 -1465
5 -43 15 -64 49 -107 58 -71 112 -183 130 -272 10 -48 15 -130 15 -234 0 -185
-11 -175 114 -100 131 78 271 232 331 365 111 241 48 703 -160 1193 -134 313
-306 587 -519 826 -156 175 -484 465 -514 453 -7 -2 -11 -1 -8 4 7 11 -92 84
-104 76 -5 -3 -12 0 -16 6 -4 8 -3 9 4 5 7 -4 12 -5 12 -3 0 11 -73 47 -82 41
-6 -4 -8 -3 -5 3 10 16 -230 151 -423 238 -317 142 -661 239 -995 280 -124 16
-583 28 -685 19z"/>
<path d="M7695 8360 c-33 -13 -47 -37 -49 -81 -1 -33 5 -46 27 -65 74 -63 177
19 133 105 -25 47 -63 61 -111 41z"/>
<path d="M7938 8080 c-26 -27 -30 -36 -24 -68 6 -41 38 -71 76 -72 35 0 79 39
86 77 5 27 1 37 -24 63 -40 39 -74 39 -114 0z"/>
<path d="M8183 7820 c-12 -5 -29 -21 -39 -35 -14 -22 -15 -32 -5 -65 6 -22 20
-44 31 -50 30 -16 75 -12 104 11 21 16 26 29 26 63 0 29 -6 48 -18 59 -23 21
-70 29 -99 17z"/>
<path d="M4835 7803 c-11 -2 -37 -9 -57 -14 l-38 -10 0 -636 c0 -459 3 -653
12 -695 11 -51 10 -62 -4 -86 -21 -35 -52 -40 -72 -10 -14 20 -16 97 -16 715
0 381 -2 693 -4 693 -12 0 -182 -63 -240 -89 -204 -92 -422 -263 -532 -417
-99 -138 -177 -286 -198 -376 l-6 -27 92 -3 93 -3 3 -62 3 -63 -53 0 c-122 0
-166 -24 -189 -99 -11 -37 -10 -48 7 -88 24 -58 67 -83 144 -83 l55 0 -5 -62
-5 -63 -60 -5 c-33 -3 -70 -11 -82 -18 -33 -19 -53 -64 -53 -123 0 -45 4 -55
34 -85 l34 -34 159 -2 c131 -1 144 -3 78 -8 -71 -6 -66 -6 50 -7 82 0 115 3
90 7 -28 5 -10 7 65 8 67 0 98 -3 85 -8 -11 -5 -16 -9 -11 -9 5 -1 -3 -13 -17
-27 -14 -14 -31 -23 -36 -19 -6 3 -8 0 -5 -8 13 -35 -24 -42 -237 -47 -190 -5
-210 -7 -236 -26 -76 -56 -75 -186 2 -234 30 -18 49 -20 255 -20 123 0 221 -3
218 -6 -4 -3 -71 -5 -150 -5 -78 0 -152 -4 -163 -9 -11 -5 -15 -9 -10 -9 6 -1
3 -6 -5 -11 -8 -5 -10 -10 -4 -10 18 0 -22 -71 -56 -101 -22 -19 -32 -37 -35
-63 -2 -20 -10 -48 -19 -62 -15 -22 -21 -123 -7 -109 2 3 13 -3 23 -12 21 -19
88 -19 99 -1 12 18 -1 72 -21 89 -14 12 -16 19 -7 28 16 16 37 14 37 -4 0 -8
9 -15 20 -15 13 0 20 7 20 19 0 51 30 68 51 29 l12 -23 10 28 c5 15 12 27 17
27 5 0 1 -18 -8 -40 -9 -22 -23 -40 -29 -40 -7 0 -13 -10 -13 -23 0 -13 -4
-27 -9 -33 -35 -36 -123 -346 -136 -476 l-7 -68 -50 0 c-45 0 -50 2 -45 20 3
11 1 20 -3 20 -33 0 -17 -373 23 -530 66 -257 189 -464 388 -655 164 -157 344
-253 637 -341 9 -2 12 -52 12 -204 0 -230 12 -211 -115 -181 -341 83 -660 267
-893 517 -176 189 -296 387 -382 634 l-40 115 0 796 c0 772 -1 798 -20 855
-11 32 -39 86 -61 120 -44 68 -140 151 -160 138 -7 -4 -9 -3 -6 3 8 12 -75 42
-138 49 -81 10 -199 -12 -267 -48 -113 -60 -214 -198 -237 -323 -7 -39 -11
-335 -11 -899 0 -842 2 -898 35 -981 14 -35 -99 83 -133 138 -61 101 -63 120
-63 664 l0 491 -106 52 c-57 29 -139 78 -181 109 -128 95 -257 249 -323 384
-13 26 -27 46 -33 44 -19 -6 -136 -245 -171 -349 -65 -195 -65 -200 -65 -1228
0 -986 3 -1055 50 -1239 43 -168 134 -363 243 -516 221 -311 553 -513 930
-564 120 -17 1417 -15 1417 2 0 12 -111 57 -142 57 -10 0 -18 4 -18 8 0 5 -12
14 -26 21 -21 9 -30 9 -42 -1 -13 -11 -15 -10 -9 4 8 22 -49 54 -68 38 -9 -8
-14 -6 -19 5 -3 10 1 15 12 15 13 1 10 4 -8 15 -14 7 -26 9 -28 4 -5 -14 -28
-11 -42 6 -20 24 -53 18 -82 -17 -15 -18 -30 -29 -35 -24 -4 5 -2 11 5 13 6 3
12 16 12 29 0 13 5 24 10 24 16 0 11 30 -6 37 -10 4 -20 0 -26 -10 -5 -9 -15
-14 -24 -10 -9 3 -20 0 -25 -8 -7 -11 -11 -10 -23 6 -9 11 -15 25 -16 30 0 7
3 7 8 0 15 -21 37 -12 38 16 1 17 -3 26 -9 22 -6 -4 -8 0 -4 11 4 10 2 16 -6
15 -25 -4 -67 14 -68 30 0 10 -2 11 -6 4 -8 -21 -26 -15 -20 7 4 14 -3 26 -23
40 -16 11 -39 41 -52 68 -14 26 -37 70 -52 99 -15 29 -29 58 -30 65 -12 63
-40 97 -128 159 -320 225 -497 410 -640 669 -58 105 -118 254 -118 294 0 48
23 82 66 96 74 25 107 -6 194 -185 66 -137 137 -246 229 -354 43 -51 191 -183
274 -244 l37 -28 -11 28 c-7 15 -18 42 -25 59 -8 17 -20 62 -28 100 -8 38 -26
95 -40 127 -14 32 -26 63 -26 70 0 7 -5 18 -11 24 -15 15 -53 123 -84 236 -26
98 -29 92 52 101 29 4 76 18 105 31 l52 24 46 -87 c217 -418 599 -769 1040
-958 58 -25 114 -49 125 -54 11 -5 43 -14 72 -21 29 -7 50 -16 48 -19 -6 -9
-118 21 -126 33 -4 6 -14 7 -23 4 -8 -3 -18 -1 -22 4 -4 6 -20 8 -38 5 -30 -5
-30 -5 -11 10 20 16 20 16 -2 11 -13 -3 -23 -1 -23 5 0 5 -26 8 -61 7 -46 -2
-65 1 -73 13 -6 8 -18 13 -26 10 -13 -5 -13 -3 -1 12 9 10 21 14 34 10 12 -4
17 -2 13 4 -3 5 -15 12 -27 15 -11 3 -18 3 -15 0 3 -3 -5 -14 -18 -24 -32 -25
-104 -26 -122 -1 -11 14 -15 15 -23 3 -7 -10 -25 -12 -80 -6 -39 4 -71 11 -71
15 0 11 -30 21 -41 14 -6 -3 -5 -12 3 -22 10 -12 10 -16 1 -19 -22 -8 -15 -36
6 -30 15 3 18 1 14 -11 -5 -10 -2 -13 6 -8 7 5 20 1 30 -8 16 -14 18 -14 34 4
9 11 17 27 17 35 0 11 11 15 40 15 33 0 40 -3 40 -20 0 -17 -7 -20 -40 -20
-36 0 -40 -2 -40 -25 0 -14 5 -25 11 -25 5 0 7 -5 4 -10 -4 -6 -12 -4 -21 5
-23 23 -30 18 -8 -6 10 -11 26 -18 36 -16 10 3 16 0 15 -7 -1 -6 8 -11 21 -10
12 0 21 -4 19 -10 -4 -11 15 -22 199 -117 158 -81 396 -156 607 -189 l77 -13
0 -121 c0 -66 3 -185 7 -262 l6 -141 -249 -5 c-232 -4 -253 -6 -302 -28 -70
-30 -133 -101 -157 -176 -44 -140 22 -284 158 -344 47 -21 55 -21 847 -20 789
0 801 1 857 22 116 43 180 147 171 277 -8 107 -66 190 -168 242 -42 21 -60 22
-299 27 l-254 5 7 135 c3 74 6 191 6 260 l0 124 55 -4 c30 -3 55 -2 55 2 0 9
145 33 162 27 7 -2 -5 -8 -27 -13 -36 -7 -37 -8 -15 -14 27 -6 100 9 100 22 0
4 -10 8 -22 8 -12 0 -18 3 -15 7 11 10 110 43 115 38 3 -3 15 1 26 8 12 7 47
21 79 31 31 11 57 23 57 28 0 4 9 8 20 8 17 0 127 47 140 60 3 3 27 16 55 30
93 47 297 174 350 219 17 15 49 40 70 56 43 32 231 209 252 237 7 9 34 39 59
67 50 55 92 111 113 153 8 15 22 36 30 45 17 19 61 106 61 121 0 5 10 20 23
34 20 22 67 131 71 168 1 8 8 25 15 38 10 18 9 25 -3 37 -8 8 -21 15 -28 15
-10 0 -9 3 2 10 8 5 42 10 75 10 71 0 156 20 216 51 57 30 151 124 179 179 50
98 50 87 50 1005 0 938 1 923 -57 1023 -59 101 -197 210 -288 227 -16 3 -25 3
-20 0 8 -4 4 -159 -4 -182 -4 -12 -21 1 -21 16 0 15 -9 20 -45 23 -25 2 -45 0
-45 -4 0 -4 -7 -5 -15 -2 -20 8 -22 144 -2 144 6 0 4 5 -7 11 -14 9 -34 6 -83
-10 -128 -42 -216 -122 -276 -249 l-32 -67 -3 -833 c-2 -719 -5 -836 -17 -849
-8 -8 -15 -21 -15 -29 0 -28 -81 -224 -127 -307 -217 -393 -583 -697 -1003
-835 -105 -35 -213 -62 -247 -62 l-23 0 0 204 0 204 38 7 c65 12 183 55 272
99 253 125 478 346 609 596 102 195 142 355 148 603 l5 177 -56 0 c-31 0 -56
3 -57 8 -1 4 -2 22 -4 41 -13 158 -38 271 -87 396 -35 89 -107 228 -120 233
-4 2 -8 11 -8 20 0 10 -11 29 -25 44 -14 15 -25 31 -25 36 0 6 -7 12 -15 16
-8 3 -15 15 -15 26 0 11 -7 20 -15 20 -13 0 -19 11 -16 32 0 3 -13 9 -29 13
-69 15 -25 20 183 20 247 0 276 6 304 59 24 46 23 118 -3 153 -39 53 -61 58
-294 62 -200 3 -258 16 -95 21 51 1 63 4 45 10 -21 7 -22 8 -5 10 16 1 14 4
-9 12 -21 8 -25 13 -15 19 11 7 11 9 1 9 -7 0 -15 -6 -18 -13 -3 -9 -16 -12
-34 -9 -38 5 -83 -6 -75 -19 8 -12 -18 -7 -27 6 -15 20 -7 25 50 26 45 1 51 3
27 9 l-30 7 30 5 c26 4 24 5 -15 8 -76 5 84 17 250 19 125 1 149 4 177 21 43
26 67 73 60 122 -11 81 -62 118 -162 118 -32 0 -55 4 -55 11 0 5 -5 7 -12 3
-7 -5 -8 -3 -2 7 10 17 11 34 3 77 -7 32 -2 37 31 32 7 -1 38 1 68 5 106 13
162 108 114 194 -37 69 -50 71 -395 71 -191 0 -316 -4 -327 -10 -15 -8 -18 -7
-14 4 7 18 -242 186 -275 186 -8 0 -11 -154 -11 -504 0 -439 -2 -507 -15 -520
-19 -19 -41 -11 -49 17 -3 12 -6 59 -6 104 0 65 -4 90 -20 115 -24 39 -26 77
-5 104 11 15 14 53 14 174 0 90 -4 147 -9 135 -7 -18 -8 -17 -15 10 -14 57
-30 86 -56 97 -42 19 -58 62 -62 163 -1 50 -4 -170 -5 -487 l-2 -578 23 0 c84
-1 293 -90 416 -177 193 -138 316 -300 402 -530 19 -50 28 -63 45 -63 40 0 59
-36 59 -111 0 -42 -5 -73 -13 -81 -9 -9 -43 -12 -126 -10 l-113 3 -6 -90 c-8
-102 -32 -220 -51 -246 -10 -14 -22 -16 -78 -10 l-65 7 25 77 c126 391 -129
832 -531 915 -208 43 -434 -20 -590 -164 -243 -224 -306 -562 -159 -860 39
-80 60 -108 132 -180 48 -47 93 -86 100 -88 8 -2 27 -13 44 -25 17 -12 32 -21
34 -19 8 8 22 0 16 -10 -4 -7 -3 -8 4 -4 18 11 37 -4 21 -16 -10 -7 -8 -8 8
-5 16 4 24 -1 29 -17 4 -11 12 -24 18 -28 7 -5 5 -8 -6 -8 -9 0 -19 6 -22 13
-3 6 -3 0 0 -15 4 -16 2 -28 -3 -28 -5 0 -9 -10 -10 -22 -2 -21 -1 -21 11 -6
14 19 51 14 76 -10 12 -13 11 -14 -7 -8 -11 3 -31 3 -44 -2 -48 -18 -287 95
-261 123 4 5 1 5 -6 1 -7 -4 -24 2 -38 13 -15 12 -31 21 -35 21 -5 0 -26 -18
-46 -40 -20 -23 -42 -39 -49 -36 -8 3 -11 0 -7 -10 3 -7 0 -14 -5 -14 -13 0
-26 36 -18 49 3 5 -1 14 -9 21 -8 7 -15 17 -15 22 0 6 7 5 15 -2 8 -7 24 -10
35 -7 20 5 24 -2 21 -33 -2 -13 0 -13 8 -1 9 14 -1 50 -21 77 -14 20 5 24 25
7 20 -18 20 -18 3 9 -26 40 -44 42 -73 7 -18 -21 -28 -27 -33 -19 -11 18 0 49
21 61 27 14 24 31 -11 64 -29 28 -30 28 -30 7 0 -13 6 -22 14 -22 38 0 27 -47
-12 -52 -18 -2 -28 -11 -33 -30 -7 -28 12 -62 70 -125 11 -13 17 -23 13 -23
-4 0 0 -4 8 -10 8 -5 11 -12 7 -17 -5 -4 -11 -3 -15 3 -4 5 -20 20 -36 32 -16
12 -24 22 -17 22 6 0 11 5 11 11 0 6 -7 9 -15 6 -25 -10 -53 42 -49 90 3 39
-14 73 -24 45 -2 -6 -11 -8 -20 -5 -15 6 -15 5 -2 -13 7 -10 20 -24 28 -31 8
-6 11 -17 7 -23 -11 -17 -77 94 -69 116 4 14 3 16 -4 5 -7 -10 -16 -3 -37 33
-15 25 -24 53 -21 62 3 8 2 12 -4 9 -26 -16 -87 212 -92 342 -3 90 -4 93 -30
102 -22 8 -28 17 -34 56 -7 52 7 115 31 135 8 7 26 10 39 8 21 -4 24 0 35 46
25 112 133 287 263 427 60 66 187 158 281 204 83 41 202 74 284 79 21 1 21 5
25 181 2 99 5 570 7 1048 l2 867 -23 -1 c-13 -1 -32 -3 -43 -6z m829 -1309 c3
-8 2 -12 -4 -9 -6 3 -10 10 -10 16 0 14 7 11 14 -7z m116 -43 c64 -5 65 -5 20
-11 -46 -6 -97 4 -115 23 -7 7 -3 7 10 2 11 -5 49 -11 85 -14z m390 -11 c-8
-5 -23 -7 -32 -4 -23 7 -60 -14 -52 -29 4 -7 -3 -2 -15 11 -26 26 -44 28 -66
6 -15 -15 -17 -15 -28 -1 -7 9 -32 18 -57 20 -25 2 25 4 110 5 102 1 150 -2
140 -8z m27 -72 c-3 -8 -6 -5 -6 6 -1 11 2 17 5 13 3 -3 4 -12 1 -19z m-1464
-157 c-3 -11 -12 -22 -22 -24 -11 -3 -10 -5 5 -6 23 -1 26 -22 8 -56 -6 -11
-14 -33 -18 -49 -5 -22 -10 -26 -16 -17 -6 11 -9 10 -13 -5 -2 -10 -5 22 -6
73 -1 79 1 92 17 96 39 10 50 7 45 -12z m-1803 -117 c0 -2 -7 -4 -15 -4 -8 0
-15 4 -15 10 0 5 7 7 15 4 8 -4 15 -8 15 -10z m-91 -10 c2 -2 -5 -4 -17 -4
-19 0 -22 -6 -22 -40 0 -22 -4 -40 -10 -40 -5 0 -10 23 -10 50 0 50 0 50 28
44 15 -4 29 -8 31 -10z m80 -36 c-1 -31 -1 -31 -8 -8 -5 14 -6 28 -4 33 9 15
13 6 12 -25z m2878 6 c-3 -3 -12 -4 -19 -1 -8 3 -5 6 6 6 11 1 17 -2 13 -5z
m240 -80 c-3 -3 -12 -4 -19 -1 -8 3 -5 6 6 6 11 1 17 -2 13 -5z m1514 -41 c13
-16 12 -17 -3 -4 -10 7 -18 15 -18 17 0 8 8 3 21 -13z m-3431 -303 c-8 -5 -19
-10 -25 -10 -5 0 -3 5 5 10 8 5 20 10 25 10 6 0 3 -5 -5 -10z m-47 -7 c-7 -2
-19 -2 -25 0 -7 3 -2 5 12 5 14 0 19 -2 13 -5z m-49 -111 c2 -4 -2 -16 -10
-27 -13 -18 -14 -18 -14 8 0 25 13 36 24 19z m-58 -67 c-18 -10 -33 -12 -40
-6 -6 5 -27 11 -46 14 -19 2 -1 4 40 5 72 2 74 1 46 -13z m-209 -47 c-3 -7 -5
-2 -5 12 0 14 2 19 5 13 2 -7 2 -19 0 -25z m1068 -198 c53 -20 671 -395 703
-426 43 -42 44 -93 5 -133 -16 -15 -125 -87 -243 -160 -118 -74 -270 -170
-336 -213 -146 -95 -180 -104 -224 -60 l-30 30 0 454 c0 400 2 456 16 476 26
38 65 49 109 32z m-603 -1072 c-7 -7 -12 -8 -12 -2 0 6 3 14 7 17 3 4 9 5 12
2 2 -3 -1 -11 -7 -17z m133 -38 c3 -5 1 -10 -4 -10 -6 0 -11 5 -11 10 0 6 2
10 4 10 3 0 8 -4 11 -10z m675 -80 c0 -5 -6 -10 -14 -10 -9 0 -12 -7 -9 -21 4
-16 2 -20 -8 -17 -13 4 -20 34 -12 51 6 11 43 9 43 -3z m-17 -95 c0 -6 -7 -11
-16 -13 -12 -3 -15 1 -11 13 7 17 25 17 27 0z m-158 -15 c3 -5 1 -10 -4 -10
-6 0 -11 5 -11 10 0 6 2 10 4 10 3 0 8 -4 11 -10z m112 4 c-3 -3 -12 -4 -19
-1 -8 3 -5 6 6 6 11 1 17 -2 13 -5z m-32 -20 c25 -12 26 -13 5 -8 -14 3 -35 7
-47 8 -11 0 -19 4 -16 9 6 10 24 8 58 -9z m72 -10 c-3 -3 -12 -4 -19 -1 -8 3
-5 6 6 6 11 1 17 -2 13 -5z m-3012 -127 c21 -18 34 -49 61 -149 108 -407 267
-666 566 -925 57 -48 122 -102 144 -118 90 -64 108 -133 50 -191 -28 -28 -41
-34 -77 -34 -49 0 -58 6 -234 156 -251 212 -401 403 -516 651 -74 159 -159
437 -162 531 -2 38 3 48 31 73 41 37 98 40 137 6z m5142 -123 c-3 -3 -12 -4
-19 -1 -8 3 -5 6 6 6 11 1 17 -2 13 -5z m-303 -252 c3 -5 -1 -9 -9 -9 -8 0
-12 4 -9 9 3 4 7 8 9 8 2 0 6 -4 9 -8z m-120 -160 c3 -5 -1 -9 -9 -9 -8 0 -12
4 -9 9 3 4 7 8 9 8 2 0 6 -4 9 -8z m-224 -215 c0 -2 -12 -14 -27 -28 l-28 -24
24 28 c23 25 31 32 31 24z m-2767 -364 c-7 -2 -19 -2 -25 0 -7 3 -2 5 12 5 14
0 19 -2 13 -5z m766 -109 c10 -9 -45 -3 -59 6 -11 7 -5 8 20 4 19 -4 37 -8 39
-10z m74 -21 c-7 -2 -19 -2 -25 0 -7 3 -2 5 12 5 14 0 19 -2 13 -5z m54 -9
c-3 -3 -12 -4 -19 -1 -8 3 -5 6 6 6 11 1 17 -2 13 -5z m60 -10 c-3 -3 -12 -4
-19 -1 -8 3 -5 6 6 6 11 1 17 -2 13 -5z m-1027 -490 c0 -2 -11 -4 -25 -4 -14
0 -25 4 -25 9 0 4 11 6 25 3 14 -2 25 -6 25 -8z"/>
<path d="M4688 6110 c-7 -24 -3 -38 8 -28 3 4 4 17 2 30 l-3 23 -7 -25z"/>
<path d="M5652 7498 c3 -189 8 -208 65 -245 22 -15 49 -18 148 -17 108 0 126
3 158 23 37 23 41 30 51 92 6 33 3 40 -31 70 -90 81 -307 224 -371 244 l-24 7
4 -174z"/>
<path d="M5411 7134 c0 -11 3 -14 6 -6 3 7 2 16 -1 19 -3 4 -6 -2 -5 -13z"/>
<path d="M5678 7075 c-30 -20 -38 -33 -43 -69 -10 -63 8 -108 56 -141 l40 -28
325 6 c179 3 328 7 330 10 7 7 -26 109 -58 180 l-31 67 -291 0 -291 0 -37 -25z"/>
<path d="M3028 6854 c-48 -25 -46 -88 2 -114 15 -8 27 -7 49 4 48 25 54 64 16
101 -28 29 -31 29 -67 9z m51 -8 c10 -12 8 -13 -8 -9 -12 3 -18 9 -15 14 7 12
10 11 23 -5z m11 -80 c0 -3 -4 -8 -10 -11 -5 -3 -10 -1 -10 4 0 6 5 11 10 11
6 0 10 -2 10 -4z"/>
<path d="M6976 6849 c-31 -25 -33 -57 -5 -93 26 -33 62 -34 94 -1 30 30 31 54
4 89 -25 31 -57 33 -93 5z"/>
<path d="M7203 6113 c9 -2 25 -2 35 0 9 3 1 5 -18 5 -19 0 -27 -2 -17 -5z"/>
<path d="M6210 6018 c0 -19 2 -20 10 -8 13 19 13 30 0 30 -5 0 -10 -10 -10
-22z"/>
<path d="M3978 6023 c7 -3 16 -2 19 1 4 3 -2 6 -13 5 -11 0 -14 -3 -6 -6z"/>
<path d="M6093 6023 c9 -2 23 -2 30 0 6 3 -1 5 -18 5 -16 0 -22 -2 -12 -5z"/>
<path d="M7181 6014 c0 -11 3 -14 6 -6 3 7 2 16 -1 19 -3 4 -6 -2 -5 -13z"/>
<path d="M6098 6003 c12 -2 30 -2 40 0 9 3 -1 5 -23 4 -22 0 -30 -2 -17 -4z"/>
<path d="M4820 5671 c0 -17 18 -21 24 -6 3 9 0 15 -9 15 -8 0 -15 -4 -15 -9z"/>
<path d="M4810 5580 c8 -5 20 -10 25 -10 6 0 3 5 -5 10 -8 5 -19 10 -25 10 -5
0 -3 -5 5 -10z"/>
<path d="M3662 5240 l1 -125 7 105 c4 57 4 114 -1 125 -4 12 -7 -31 -7 -105z"/>
<path d="M3663 4960 c0 -47 2 -66 4 -42 2 23 2 61 0 85 -2 23 -4 4 -4 -43z"/>
<path d="M3710 5025 c0 -8 5 -15 10 -15 6 0 10 7 10 15 0 8 -4 15 -10 15 -5 0
-10 -7 -10 -15z"/>
<path d="M8066 4911 c-51 -28 -67 -31 -142 -31 l-84 0 0 -130 0 -130 82 0 c77
0 84 -2 134 -36 42 -29 62 -36 101 -37 61 -1 117 26 157 76 26 32 31 49 34
105 4 62 2 70 -30 116 -37 55 -87 86 -151 93 -33 4 -54 -2 -101 -26z"/>
<path d="M4237 4363 c-4 -3 -7 -11 -7 -17 0 -6 5 -5 12 2 6 6 9 14 7 17 -3 3
-9 2 -12 -2z"/>
<path d="M4240 4175 c0 -8 7 -15 15 -15 8 0 15 7 15 15 0 8 -7 15 -15 15 -8 0
-15 -7 -15 -15z"/>
<path d="M4597 4129 c7 -7 15 -10 18 -7 3 3 -2 9 -12 12 -14 6 -15 5 -6 -5z"/>
<path d="M4570 4110 c8 -5 20 -10 25 -10 6 0 3 5 -5 10 -8 5 -19 10 -25 10 -5
0 -3 -5 5 -10z"/>
<path d="M4545 4090 c3 -5 8 -10 11 -10 2 0 4 5 4 10 0 6 -5 10 -11 10 -5 0
-7 -4 -4 -10z"/>
<path d="M4251 4068 c9 -7 18 -20 22 -28 4 -12 6 -12 6 2 1 10 -9 22 -21 28
-20 9 -21 9 -7 -2z"/>
<path d="M4610 4060 c0 -5 5 -10 10 -10 6 0 10 5 10 10 0 6 -4 10 -10 10 -5 0
-10 -4 -10 -10z"/>
<path d="M4640 4050 c0 -5 5 -10 11 -10 5 0 7 5 4 10 -3 6 -8 10 -11 10 -2 0
-4 -4 -4 -10z"/>
<path d="M4590 4025 c7 -9 15 -13 17 -11 7 7 -7 26 -19 26 -6 0 -6 -6 2 -15z"/>
<path d="M4734 4025 c11 -8 27 -15 35 -15 9 0 3 7 -13 15 -36 19 -47 19 -22 0z"/>
<path d="M4703 4008 c1 -6 -9 -15 -23 -19 -21 -7 -20 -8 8 -4 20 3 31 1 27 -5
-4 -6 6 -10 22 -9 27 0 27 1 6 11 -13 6 -23 17 -23 25 0 7 -4 13 -10 13 -5 0
-9 -5 -7 -12z"/>
<path d="M4300 4006 c0 -2 8 -10 18 -17 15 -13 16 -12 3 4 -13 16 -21 21 -21
13z"/>
<path d="M4610 3996 c0 -2 7 -6 15 -10 8 -3 15 -1 15 4 0 6 -7 10 -15 10 -8 0
-15 -2 -15 -4z"/>
<path d="M3850 2740 c-8 -5 -12 -12 -9 -15 4 -3 12 1 19 10 14 17 11 19 -10 5z"/>
<path d="M4065 2649 c-4 -6 -5 -12 -2 -15 2 -3 7 2 10 11 7 17 1 20 -8 4z"/>
<path d="M6240 2250 c0 -5 -18 -10 -40 -10 l-40 0 0 -40 0 -40 -79 0 c-44 0
-81 -4 -83 -10 -5 -16 -238 0 -238 17 0 14 -18 17 -46 6 -17 -6 -17 -7 0 -13
17 -6 17 -7 2 -23 -12 -11 -34 -17 -66 -17 -27 0 -52 -4 -55 -10 -3 -5 -22
-10 -41 -10 -24 0 -34 -5 -34 -15 0 -11 11 -15 40 -15 29 0 40 -4 40 -15 0
-12 -13 -15 -62 -15 -61 1 -98 15 -98 38 0 6 -10 17 -22 23 -28 15 -43 30 -51
49 -3 8 -6 -42 -6 -112 -1 -79 3 -128 9 -128 6 0 10 -10 10 -23 0 -13 5 -28
12 -35 15 -15 538 -17 538 -2 0 6 6 10 14 10 8 0 25 12 38 28 12 15 40 36 61
45 21 10 66 45 100 78 34 32 70 62 80 65 9 3 17 12 17 20 0 8 5 12 10 9 6 -3
10 -2 10 4 0 6 10 19 22 31 19 17 20 20 4 20 -25 0 -46 25 -46 54 0 24 4 26
40 26 22 0 40 5 40 10 0 6 -18 10 -40 10 -22 0 -40 -4 -40 -10z m-490 -154 c0
-3 -4 -8 -10 -11 -5 -3 -10 -1 -10 4 0 6 5 11 10 11 6 0 10 -2 10 -4z m293
-23 c-24 -2 -62 -2 -85 0 -24 2 -5 4 42 4 47 0 66 -2 43 -4z m-626 -125 c-2
-13 -4 -5 -4 17 -1 22 1 32 4 23 2 -10 2 -28 0 -40z m61 -29 c26 -1 26 -1 -5
-11 -18 -6 -33 -17 -33 -24 0 -8 -4 -14 -10 -14 -5 0 -10 7 -10 15 0 8 5 15
10 15 6 0 11 24 12 53 1 50 2 50 5 10 4 -39 7 -43 31 -44z m350 74 c-10 -2
-28 -2 -40 0 -13 2 -5 4 17 4 22 1 32 -1 23 -4z"/>
<path d="M6335 2230 c3 -5 13 -10 21 -10 8 0 14 5 14 10 0 6 -9 10 -21 10 -11
0 -17 -4 -14 -10z"/>
<path d="M3440 2181 c0 -10 19 -25 25 -20 1 2 -3 10 -11 17 -8 7 -14 8 -14 3z"/>
<path d="M3489 2113 c-13 -17 -13 -17 6 -3 11 8 22 16 24 17 2 2 0 3 -6 3 -6
0 -17 -8 -24 -17z"/>
</g>
</svg>
